PathFileType	4	(X/Y/Z)	OpenSim_Sub08_EMGStiffKnee_Gyro.trc
DataRate	CameraRate	NumFrames	NumMarkers	Units	OrigDataRate	OrigDataStartFrame	OrigNumFrames
100	100	41	8	m	100	1	6301
Frame#	Time	torso_imu_offset_imu	pelvis_imu_offset_imu	tibia_r_imu_offset_imu	femur_r_imu_offset_imu	tibia_l_imu_offset_imu	femur_l_imu_offset_imu	toes_r_imu_offset_imu	toes_l_imu_offset_imu
				X1	Y1	Z1	X2	Y2	Z2	X3	Y3	Z3	X4	Y4	Z4	X5	Y5	Z5	X6	Y6	Z6	X7	Y7	Z7	X8		Y8	Z8	

1	0	-0.00646332	-0.05272119	0.00755046	0.00268045	0.01016955	-0.00517248	0.00894408	0.00293497	0.00968670	-0.00405086	0.01161011	0.01757966	0.02209112	0.00673748	-0.00951313	-0.00283577	-0.00137620	-0.01819022	0.00179030	0.00869071	0.00392740	-0.00256368	0.02090984	-0.00119827
2	0.01000000	-0.00579812	-0.05229924	0.00872160	0.00096734	0.01156604	-0.00727129	-0.00038952	0.00064758	0.01085791	-0.00188246	0.01738463	0.01822540	0.02698940	0.00589485	-0.00900903	-0.00030418	-0.00136849	-0.01929639	0.00185687	0.00905650	0.00438577	-0.00516913	0.01802282	-0.00395471
3	0.02000000	-0.00681815	-0.04491831	0.01244537	-0.00271862	0.00966740	-0.00604363	-0.00240134	0.00102437	0.01433486	-0.00018612	0.01077267	0.01568913	0.02873686	0.00729078	-0.01005842	0.00067994	-0.00023723	-0.01913103	0.00254580	0.01147551	0.00726383	-0.00302687	0.01908116	-0.00582251
4	0.03000000	-0.00255759	-0.04622503	0.01360619	-0.00041028	0.01433670	-0.00397597	-0.00401308	-0.00465381	0.01310525	0.00285476	0.01307513	0.01742030	0.02841484	0.00605039	-0.01028202	0.00476832	-0.00307037	-0.01951256	0.00050298	0.00910984	0.00234142	-0.00699861	0.02464788	-0.00061599
5	0.04000000	-0.00505783	-0.03870064	0.01177607	-0.00079990	0.01397510	-0.00439564	0.00291043	-0.00823578	0.01405394	-0.00366257	0.01522571	0.01578905	0.02602673	0.00894067	-0.01690892	0.00694008	-0.00253757	-0.02004466	0.00296197	0.00866720	0.00590276	-0.00437999	0.01981631	-0.00578113
6	0.05000000	0.00107759	-0.04533634	0.01314925	-0.00249695	0.01449721	-0.00708350	0.00571806	-0.00241499	0.01378277	0.00252229	0.01402981	0.01763219	0.02758091	0.00470598	-0.01472237	0.00835741	-0.00069001	-0.01441261	-0.00104348	0.01468864	0.00605984	-0.00484263	0.02275742	-0.00554014
7	0.06000000	-0.00075939	-0.04216715	0.01275973	-0.00091060	0.01477704	-0.00496621	0.00699053	-0.00091567	0.01381163	-0.00006088	0.01462911	0.01845606	0.02882000	0.01022525	-0.01447056	0.00986513	-0.00192282	-0.01569362	0.00145750	0.01210419	0.00609261	-0.00657537	0.02397163	-0.00481725
8	0.07000000	-0.00026508	-0.04238070	0.01278758	0.00185759	0.01382594	-0.00390847	0.00955817	-0.00034754	0.01383801	0.00270349	0.01276678	0.02013285	0.03545754	0.00763814	-0.01781616	0.01185058	-0.00076536	-0.01354865	0.00110766	0.01556143	0.00788657	-0.00606934	0.02400891	-0.00490888
9	0.08000000	0.00151181	-0.04068092	0.01345655	0.00162667	0.01851128	-0.00453021	0.00823508	-0.00234841	0.01435677	0.00659356	0.01338345	0.01974656	0.03665457	0.00536944	-0.01679369	0.01447744	-0.00130071	-0.01633312	0.00206491	0.01463374	0.00801113	-0.00413293	0.02392699	-0.00493169
10	0.09000000	0.00086958	-0.03869216	0.01480324	0.00046856	0.01843762	-0.00406343	0.00399859	-0.00340516	0.01761711	0.01021798	0.01120440	0.01634408	0.04017247	0.00771756	-0.02115846	0.01504179	-0.00146316	-0.01409503	-0.00067339	0.01435581	0.01121500	-0.00766879	0.02335944	-0.00384606
11	0.10000000	0.00571131	-0.03719398	0.01211573	0.00583239	0.02410026	-0.00692634	-0.00448153	-0.00233102	0.01452339	0.00982632	0.01286107	0.01676473	0.04318875	0.00333809	-0.02003852	0.01186502	-0.00198727	-0.01711572	0.00446134	0.01720252	0.01128402	-0.00135530	0.02656207	-0.00554325
12	0.11000000	-0.00113141	-0.03785102	0.01401656	0.00519725	0.02075697	-0.00260503	-0.00125945	-0.00013502	0.01831778	0.01806988	0.01224086	0.01614471	0.04110918	0.00682771	-0.02033675	0.01112531	-0.00306109	-0.01708510	-0.00464990	0.01849890	0.01121797	-0.00834611	0.02283194	-0.00353126
13	0.12000000	0.00142166	-0.03100479	0.01170863	0.00429219	0.02328634	-0.00259481	-0.00855248	0.00094544	0.01538650	0.01680273	0.00847270	0.01250686	0.04240183	0.00594906	-0.02277270	0.01128749	-0.00166966	-0.01946485	0.00000432	0.01571730	0.00978818	-0.00512011	0.02338480	-0.00443480
14	0.13000000	0.00335830	-0.03234824	0.01366635	0.01073396	0.02468550	-0.00311286	-0.01146940	-0.00186674	0.02209372	0.02051573	0.01285917	0.01732587	0.04170331	0.00466065	-0.02131234	0.01390207	-0.00356116	-0.01983753	-0.00064749	0.01675082	0.01486166	-0.00508493	0.02499225	-0.00836281
15	0.14000000	0.00184729	-0.02738584	0.01411545	0.01269482	0.02412307	-0.00288752	-0.00683746	0.00258851	0.02162985	0.02058178	0.01108730	0.01121949	0.04226261	0.00368557	-0.02615875	0.01319824	-0.00063860	-0.01852819	-0.00279318	0.01697652	0.01431625	-0.00559691	0.02565397	-0.00410354
16	0.15000000	0.00207997	-0.02672735	0.01662046	0.01419723	0.02455116	-0.00370694	-0.00944694	0.00180166	0.02151300	0.01987529	0.01313231	0.01330913	0.04430505	0.00415617	-0.02672890	0.01393309	0.00072277	-0.01657909	0.00265704	0.02190620	0.01343727	-0.00556073	0.02563559	-0.00709358
17	0.16000000	0.00313192	-0.02844849	0.01458089	0.01453369	0.02444788	-0.00366310	-0.00577906	0.00431252	0.02201271	0.01901830	0.00919911	0.01008705	0.04573430	0.00512550	-0.02621004	0.01400845	-0.00060243	-0.01466795	-0.00744599	0.01664941	0.01443777	-0.00303518	0.02578661	-0.00667511
18	0.17000000	0.00330306	-0.02602322	0.01614579	0.01814858	0.02445443	-0.00431900	-0.01437570	0.00152628	0.02692463	0.01604373	0.00921067	0.00822080	0.04715936	-0.00430344	-0.02415995	0.01375610	0.00056162	-0.01698282	0.00914231	0.01982498	0.01337436	-0.00263627	0.02566010	-0.00463526
19	0.18000000	0.00509091	-0.02574228	0.02263145	0.01382622	0.02729463	-0.00363822	-0.02238551	-0.00285971	0.02564555	0.01700648	0.01370825	0.01034192	0.04578246	-0.00699364	-0.02896730	0.01209913	-0.00333458	-0.01401521	-0.00785389	0.01602065	0.01590425	0.00029105	0.02523608	-0.00914694
20	0.19000000	0.00125749	-0.03123187	0.01823618	0.01103041	0.02746675	0.00107311	-0.01603200	-0.00796783	0.02378282	0.02617166	0.01057423	0.00451157	0.04294359	-0.01184766	-0.02926749	0.01206890	0.00204266	-0.01017719	-0.00407811	0.01859788	0.01138883	-0.00159642	0.02655208	-0.00780156
21	0.20000000	0.00530761	-0.02412242	0.02098684	0.01167200	0.02309974	-0.00121358	-0.01859491	-0.00279931	0.03351779	0.02150516	0.01218384	0.00625329	0.04137782	-0.00558135	-0.03388632	0.01241637	0.00147918	-0.01567336	-0.00513570	0.01568062	0.01459554	0.00110695	0.02527324	-0.00636491
22	0.21000000	0.00194325	-0.02694227	0.02334864	0.01388963	0.02991413	-0.00161340	-0.01722804	-0.00112566	0.03023021	0.02645882	0.01207502	0.00191099	0.04200179	0.00019231	-0.02838259	0.01511676	-0.00439468	-0.01173584	-0.00136165	0.01892369	0.01294406	0.00427864	0.02866215	-0.00799817
23	0.22000000	0.00307021	-0.02425963	0.02274280	0.01098623	0.02780291	0.00108334	-0.01169756	0.00025420	0.03060513	0.02775021	0.01565148	0.00219738	0.04315925	0.00112709	-0.03168032	0.02229363	0.00016280	-0.01388351	-0.00812908	0.01685746	0.01294176	-0.00133493	0.02626796	-0.00800795
24	0.23000000	0.00177939	-0.02191226	0.02251970	0.01119333	0.02784065	0.00081748	-0.00767205	-0.00014517	0.02855349	0.02783502	0.01752146	0.00167225	0.04585810	0.00385622	-0.02949883	0.02278002	-0.00003491	-0.00976649	-0.00077467	0.01880319	0.01319530	0.00379059	0.02465731	-0.00842105
25	0.24000000	0.00273329	-0.01910364	0.02193542	0.01331415	0.02583044	0.00061247	-0.00102998	-0.00220973	0.03179472	0.02700129	0.01707572	0.00381869	0.05099789	0.00685169	-0.03142189	0.02410400	-0.00133990	-0.01123610	-0.00580719	0.01543514	0.01451880	-0.00190207	0.02640376	-0.01067856
26	0.25000000	0.00237850	-0.00953814	0.02038547	0.01700376	0.02743523	0.00025826	0.00506988	-0.00426703	0.03119642	0.02698866	0.01242780	0.00164659	0.05022503	0.00597671	-0.02954446	0.02357476	-0.00238759	-0.01128123	-0.00477514	0.01752661	0.01247788	0.00030359	0.02286796	-0.00819426
27	0.26000000	0.00700727	-0.00886997	0.01844273	0.00943197	0.02784961	-0.00472627	0.00935390	0.00276688	0.03348813	0.02275606	0.01337071	0.00730776	0.05176907	0.01042119	-0.03032874	0.02746183	0.00061116	-0.01208140	-0.00593096	0.01913766	0.01028748	-0.00084229	0.02649111	-0.00552418
28	0.27000000	0.01220701	-0.01640173	0.01652674	0.01385244	0.02548795	-0.00187060	0.00274716	-0.00427011	0.02896405	0.02082255	0.01062146	0.00261191	0.05038454	0.00342016	-0.03054644	0.02309492	0.00111080	-0.01002153	-0.00746510	0.01412747	0.01598270	0.00371681	0.02213939	-0.00814355
29	0.28000000	0.01562000	-0.01834694	0.01706536	0.01766465	0.02425985	-0.00160395	-0.00677983	-0.01212305	0.02737448	0.01913659	0.01320448	0.00304168	0.04426192	0.00543375	-0.02837828	0.01955618	-0.00232974	-0.01212369	-0.00652479	0.01331029	0.01069523	-0.00123021	0.02675510	-0.00786673
30	0.29000000	0.00439921	-0.00480209	0.01152549	0.01429958	0.02094473	-0.00226124	-0.00247745	-0.00792440	0.03499982	0.02104102	0.01058568	0.00303852	0.04161241	0.00472829	-0.02979047	0.01643852	0.00087545	-0.00806614	-0.01036745	0.01760302	0.01338765	0.00604459	0.02254899	-0.00646085
31	0.30000000	0.00428209	-0.00959172	0.01481145	0.01444381	0.02235628	-0.00334369	0.00034839	-0.00625193	0.02840834	0.01765979	0.01349612	0.00585420	0.03671850	0.00572876	-0.03144747	0.01573693	0.00084830	-0.01062732	-0.01448307	0.01733950	0.01437741	0.00084496	0.02207544	-0.00779398
32	0.31000000	0.00081690	-0.02135804	0.01857013	0.01886966	0.02290107	-0.00288461	0.00390424	-0.01142572	0.01909541	0.01409057	0.01126543	0.00817279	0.02964594	0.00702291	-0.02958321	0.01533198	0.00085950	-0.01052822	-0.00998116	0.01577157	0.01121569	-0.00041440	0.02358681	-0.00665846
33	0.32000000	-0.00772720	-0.02696087	0.01649312	0.01936607	0.01759014	-0.00120979	0.00869286	-0.00178836	0.01801037	0.01345303	0.01091603	0.00887357	0.03091735	0.00928055	-0.02796375	0.01242156	0.00120614	-0.01156844	-0.00902978	0.01414834	0.01259174	0.00001150	0.02335825	-0.00415934
34	0.33000000	-0.01212660	-0.03051503	0.01891454	0.02316088	0.01941701	-0.00203251	0.02053587	0.00033023	0.01693714	0.01573141	0.01171988	0.01225145	0.03097964	0.01131975	-0.02491101	0.01511661	0.00292931	-0.01120383	-0.00356074	0.01489995	0.00932535	-0.00062467	0.02065397	-0.00420181
35	0.34000000	-0.01631626	-0.03295456	0.02742221	0.02108961	0.01189971	-0.00001712	0.02107903	-0.00146054	0.01362659	0.01181038	0.01143197	0.02005438	0.03022425	0.01201973	-0.02403845	0.01170257	0.00049276	-0.01621787	-0.00329705	0.00876809	0.00883727	-0.00515938	0.01863587	-0.00612895
36	0.35000000	-0.00430965	-0.03553880	0.01599227	0.02153761	0.01350800	0.00083547	0.01933573	0.00617041	0.01383451	0.01823955	0.00943124	0.01508524	0.03094742	0.01623898	-0.02431706	0.01816646	-0.00016209	-0.01926126	-0.00207440	0.01533860	0.00799722	0.00135988	0.02191115	-0.00798974
37	0.36000000	0.00368468	-0.02591892	0.01080798	0.01827249	0.00754906	0.00284468	0.00939150	0.00635262	0.00823245	0.02687187	0.00578443	0.01521303	0.03815565	0.01207406	-0.01743248	0.01681948	0.00255159	-0.01775531	0.00129768	0.01107069	0.00891262	-0.00310581	0.01833233	-0.00823828
38	0.37000000	0.00984318	-0.02338732	0.01461627	0.02292624	0.00496023	0.00029751	0.00408524	0.00292938	0.01368168	0.03141453	0.00896409	0.01970942	0.03797684	0.01619950	-0.02215133	0.01431920	0.00437940	-0.01758215	-0.00093805	0.00664085	0.00352650	0.00019671	0.01860102	-0.00072715
39	0.38000000	0.00870461	-0.03171454	0.01730939	0.02337998	0.00346040	0.00228105	0.00185356	0.00234040	0.01302939	0.03785009	0.00764668	0.01459859	0.04422195	0.01363773	-0.02015106	0.01507211	0.00270131	-0.02100226	-0.00117155	0.00986062	0.00434886	-0.00322035	0.01665097	-0.00221474
40	0.39000000	0.00701676	-0.03847607	0.01496521	0.01926420	0.00711706	-0.00119852	0.00471631	0.00175852	0.01191539	0.03886501	0.00738889	0.01640332	0.04099138	0.01358583	-0.01797253	0.01738559	-0.00209351	-0.02106687	-0.00234846	0.00695250	0.00552230	-0.00016746	0.01643625	-0.00584007
41	0.40000000	0.00690708	-0.03578983	0.01572295	0.01690851	0.00988488	0.00075171	0.00760141	0.00242947	0.00938757	0.03820963	0.00833646	0.01384502	0.03747011	0.00866564	-0.01688812	0.02030116	0.00143761	-0.02272373	-0.00061769	0.01007682	0.00383926	-0.00212319	0.01846575	-0.00100991
